<svg width="695" height="709" viewBox="0 0 695 709" fill="none" xmlns="http://www.w3.org/2000/svg">
<path d="M695 326.5C695 279.881 686.999 262.218 669.51 219.147C652.021 176.077 626.388 136.942 594.073 103.977C561.758 71.0123 523.395 44.8632 481.174 27.0228C438.952 9.18234 393.7 -2.03779e-06 348 0C302.3 2.03779e-06 257.047 9.18235 214.826 27.0228C172.605 44.8632 134.242 71.0123 101.927 103.977C69.612 136.942 43.9785 176.077 26.4898 219.147C9.0012 262.218 0.999996 279.881 1 326.5H207.5C210.5 308 212.582 317 219.244 300.595C226.247 283.346 236.513 267.674 249.454 254.472C262.395 241.271 277.759 230.799 294.667 223.654C311.576 216.509 329.698 212.832 348 212.832C366.302 212.832 384.424 216.509 401.332 223.654C418.241 230.799 433.604 241.271 446.546 254.472C459.487 267.674 469.752 283.346 476.756 300.595C484 317 485.5 308.5 488 326.5H594H695Z" fill="white" fill-opacity="0.3"/>
<path d="M694 382.5C694 429.119 685.999 446.782 668.51 489.853C651.021 532.923 625.388 572.058 593.073 605.023C560.758 637.988 522.395 664.137 480.174 681.977C437.952 699.818 392.7 709 347 709C301.3 709 256.047 699.818 213.826 681.977C171.605 664.137 133.242 637.988 100.927 605.023C68.612 572.058 42.9785 532.923 25.4898 489.853C8.0012 446.782 -3.99522e-06 429.119 0 382.5H206.5C209.5 401 211.582 392 218.244 408.405C225.247 425.654 235.513 441.326 248.454 454.528C261.395 467.729 276.759 478.201 293.667 485.346C310.576 492.491 328.698 496.168 347 496.168C365.302 496.168 383.424 492.491 400.332 485.346C417.241 478.201 432.604 467.729 445.546 454.528C458.487 441.326 468.752 425.654 475.756 408.405C483 392 484.5 400.5 487 382.5H593H694Z" fill="white" fill-opacity="0.3"/>
<circle cx="347" cy="354.5" r="73" fill="white" fill-opacity="0.3"/>
</svg>
