<svg width="557" height="558" viewBox="0 0 557 558" fill="none" xmlns="http://www.w3.org/2000/svg">
<path fill-rule="evenodd" clip-rule="evenodd" d="M278.491 558C426.87 558 548.195 442.171 556.981 296H376.037C367.976 342.576 327.37 378 278.491 378C229.611 378 189.005 342.576 180.945 296H0C8.78564 442.171 130.111 558 278.491 558ZM376.037 262H556.981C548.195 115.829 426.87 0 278.491 0C130.111 0 8.78564 115.829 0 262H180.945C189.005 215.424 229.611 180 278.491 180C327.37 180 367.976 215.424 376.037 262ZM278.491 340C312.732 340 340.491 312.689 340.491 279C340.491 245.311 312.732 218 278.491 218C244.249 218 216.491 245.311 216.491 279C216.491 312.689 244.249 340 278.491 340Z" fill="#C4C4C4"/>
</svg>
